<svg width="65" height="48" viewBox="0 0 65 48" fill="none" xmlns="http://www.w3.org/2000/svg">
<path d="M49.7519 42.8139C48.5876 42.8139 47.4711 42.3514 46.6478 41.5281C45.8245 40.7048 45.362 39.5883 45.362 38.424C45.362 37.2597 45.8245 36.1431 46.6478 35.3199C47.4711 34.4966 48.5876 34.0341 49.7519 34.0341C50.9162 34.0341 52.0328 34.4966 52.856 35.3199C53.6793 36.1431 54.1418 37.2597 54.1418 38.424C54.1418 39.5883 53.6793 40.7048 52.856 41.5281C52.0328 42.3514 50.9162 42.8139 49.7519 42.8139ZM54.1418 16.4746L59.8779 23.7911H46.8253V16.4746M14.6329 42.8139C13.4686 42.8139 12.3521 42.3514 11.5288 41.5281C10.7055 40.7048 10.243 39.5883 10.243 38.424C10.243 37.2597 10.7055 36.1431 11.5288 35.3199C12.3521 34.4966 13.4686 34.0341 14.6329 34.0341C15.7972 34.0341 16.9138 34.4966 17.737 35.3199C18.5603 36.1431 19.0228 37.2597 19.0228 38.424C19.0228 39.5883 18.5603 40.7048 17.737 41.5281C16.9138 42.3514 15.7972 42.8139 14.6329 42.8139ZM55.6051 12.0848H46.8253V0.378418H5.85317C2.60466 0.378418 0 2.98308 0 6.23158V38.424H5.85317C5.85317 40.7525 6.77817 42.9857 8.4247 44.6322C10.0712 46.2787 12.3044 47.2037 14.6329 47.2037C16.9614 47.2037 19.1946 46.2787 20.8411 44.6322C22.4877 42.9857 23.4127 40.7525 23.4127 38.424H40.9722C40.9722 40.7525 41.8972 42.9857 43.5437 44.6322C45.1902 46.2787 47.4234 47.2037 49.7519 47.2037C52.0804 47.2037 54.3136 46.2787 55.9601 44.6322C57.6067 42.9857 58.5317 40.7525 58.5317 38.424H64.3848V23.7911L55.6051 12.0848Z" fill="#42906A"/>
</svg>
