<svg width="645" height="301" viewBox="0 0 645 301" fill="none" xmlns="http://www.w3.org/2000/svg">
<path opacity="0.2" d="M644.171 143.241C610.942 169.324 578.715 187.638 551.179 196.638L492.5 185.11L532.375 147.49C561.265 140.354 600.237 138.35 644.177 143.24L644.171 143.241ZM571.222 231.026C539.228 238.082 510.279 241.803 485.751 242.577L416.57 215.668L469.922 200.948L549.906 216.658L549.943 216.62C557.345 221.179 564.443 225.986 571.222 231.026ZM528.96 105.671C525.92 114.85 522.487 123.567 518.698 131.783L463.918 183.39L410.603 198.071L453.616 137.684C474.007 126.472 499.412 115.524 528.96 105.671ZM466.719 20.7787C439.74 50.1536 411.806 71.9912 386.276 84.3028L324.028 81.1433L354.892 39.8097C382.283 29.123 421.13 21.9839 466.719 20.7787ZM466.213 264.75C379.499 280.211 329.833 266.463 325.311 240.845L382.474 225.078L456.118 253.742C459.624 257.334 462.99 261.005 466.213 264.75ZM420.622 129.61C420.136 136.012 419.343 142.431 418.243 148.857L376.507 207.481L319.982 223.077C304.14 199.685 336.196 161.689 420.621 129.613L420.622 129.61ZM415.115 114.542C384.596 125.567 356.323 132.997 331.745 137.028L255.001 120.553L305.198 99.3325L389.98 103.657L389.974 103.628C398.608 106.989 406.995 110.629 415.115 114.54L415.115 114.542ZM340.912 0.28094C340.148 9.47019 338.836 18.2515 337.065 26.6169L294.784 83.3333L244.585 104.554L272.842 41.0334C290.622 27.5705 313.531 13.6677 340.911 0.282218L340.912 0.28094ZM317.493 160.87C233.758 187.282 180.171 180.777 169.197 156.856L222.918 134.113L304.561 151.68C308.994 154.651 313.306 157.716 317.492 160.871L317.493 160.87ZM298.681 246.676C198.278 277.195 97.7748 298.423 -5.46935 300.212L-9.54166 281.411C91.8256 280.594 191.028 260.005 291.838 229.361L298.681 246.674L298.681 246.676ZM237.502 37.7069C238.668 44.1502 239.476 50.3948 239.947 56.4478L212.461 118.123L159.353 140.605C137.42 120.357 160.256 79.7209 237.503 37.7088L237.502 37.7069ZM143.921 165.622C90.0655 190.12 35.4522 211.655 -20.9969 228.523L-24.9379 210.328C28.5575 194.177 80.7801 173.568 132.685 149.958L143.922 165.623L143.921 165.622Z" fill="#F1F1F1"/>
</svg>
