<svg width="17" height="22" viewBox="0 0 17 22" fill="none" xmlns="http://www.w3.org/2000/svg">
<g id="Group">
<path id="Vector" fill-rule="evenodd" clip-rule="evenodd" d="M8.5 21.0446L9.28875 20.1559C10.1838 19.1309 10.9888 18.1584 11.705 17.2334L12.2962 16.4534C14.765 13.1271 16 10.4871 16 8.53588C16 4.37088 12.6425 0.994629 8.5 0.994629C4.3575 0.994629 1 4.37088 1 8.53588C1 10.4871 2.235 13.1271 4.70375 16.4534L5.295 17.2334C6.3168 18.5426 7.38584 19.813 8.5 21.0446Z" stroke="white" stroke-width="1.5" stroke-linecap="round" stroke-linejoin="round"/>
<path id="Vector_2" d="M8.5 11.6196C10.2259 11.6196 11.625 10.2205 11.625 8.49463C11.625 6.76874 10.2259 5.36963 8.5 5.36963C6.77411 5.36963 5.375 6.76874 5.375 8.49463C5.375 10.2205 6.77411 11.6196 8.5 11.6196Z" stroke="white" stroke-width="1.5" stroke-linecap="round" stroke-linejoin="round"/>
</g>
</svg>
