<svg width="21" height="21" viewBox="0 0 21 21" fill="none" xmlns="http://www.w3.org/2000/svg">
<g id="ep:office-building">
<path id="Vector" d="M3.9375 2.625V17.0625H11.8125V2.625H3.9375ZM3.28125 1.3125H12.4688C12.6428 1.3125 12.8097 1.38164 12.9328 1.50471C13.0559 1.62778 13.125 1.7947 13.125 1.96875V17.7188C13.125 17.8928 13.0559 18.0597 12.9328 18.1828C12.8097 18.3059 12.6428 18.375 12.4688 18.375H3.28125C3.1072 18.375 2.94028 18.3059 2.81721 18.1828C2.69414 18.0597 2.625 17.8928 2.625 17.7188V1.96875C2.625 1.7947 2.69414 1.62778 2.81721 1.50471C2.94028 1.38164 3.1072 1.3125 3.28125 1.3125Z" fill="white"/>
<path id="Vector_2" d="M5.25 5.25H10.5V6.5625H5.25V5.25ZM5.25 9.1875H10.5V10.5H5.25V9.1875ZM5.25 13.125H10.5V14.4375H5.25V13.125ZM13.125 10.5H15.75V11.8125H13.125V10.5ZM13.125 13.125H15.75V14.4375H13.125V13.125ZM1.3125 17.0625H19.6875V18.375H1.3125V17.0625Z" fill="white"/>
<path id="Vector_3" d="M13.125 7.875V17.0625H17.0625V7.875H13.125ZM12.4688 6.5625H17.7188C17.8928 6.5625 18.0597 6.63164 18.1828 6.75471C18.3059 6.87778 18.375 7.0447 18.375 7.21875V17.7188C18.375 17.8928 18.3059 18.0597 18.1828 18.1828C18.0597 18.3059 17.8928 18.375 17.7188 18.375H12.4688C12.2947 18.375 12.1278 18.3059 12.0047 18.1828C11.8816 18.0597 11.8125 17.8928 11.8125 17.7188V7.21875C11.8125 7.0447 11.8816 6.87778 12.0047 6.75471C12.1278 6.63164 12.2947 6.5625 12.4688 6.5625Z" fill="white"/>
</g>
</svg>
