<svg width="19" height="19" viewBox="0 0 19 19" fill="none" xmlns="http://www.w3.org/2000/svg">
<g id="telefon">
<path id="Vector" d="M4.33955 1.57731C4.26945 1.48714 4.18096 1.41291 4.07997 1.35956C3.97898 1.30621 3.86779 1.27496 3.7538 1.26788C3.6398 1.26081 3.5256 1.27807 3.41879 1.31852C3.31197 1.35897 3.21499 1.42169 3.13427 1.5025L1.90644 2.73153C1.33289 3.30627 1.12152 4.11969 1.37208 4.83336C2.41199 7.7873 4.10359 10.4692 6.32142 12.6802C8.53239 14.898 11.2143 16.5896 14.1682 17.6295C14.8818 17.8801 15.6953 17.6687 16.27 17.0952L17.4978 15.8673C17.5786 15.7866 17.6414 15.6896 17.6818 15.5828C17.7223 15.476 17.7395 15.3618 17.7324 15.2478C17.7254 15.1338 17.6941 15.0226 17.6408 14.9216C17.5874 14.8206 17.5132 14.7322 17.423 14.6621L14.6835 12.5317C14.5872 12.457 14.4751 12.4051 14.3558 12.3801C14.2365 12.355 14.1131 12.3573 13.9948 12.3869L11.3943 13.0364C11.0471 13.1232 10.6835 13.1186 10.3387 13.023C9.99385 12.9275 9.67964 12.7444 9.42664 12.4914L6.51023 9.57374C6.25703 9.32085 6.07363 9.0067 5.97791 8.66188C5.88218 8.31706 5.87739 7.95333 5.964 7.6061L6.61473 5.00554C6.6443 4.88726 6.64663 4.76381 6.62154 4.64451C6.59644 4.5252 6.54458 4.41315 6.46986 4.31681L4.33955 1.57731ZM2.23774 0.607148C2.44554 0.399281 2.69518 0.237999 2.97009 0.134013C3.24501 0.0300277 3.53889 -0.0142832 3.83224 0.00402319C4.12559 0.0223296 4.41169 0.102834 4.67154 0.240192C4.93139 0.377549 5.15905 0.568616 5.33939 0.800706L7.4697 3.53901C7.86038 4.04131 7.99812 4.69561 7.84375 5.3131L7.19421 7.91366C7.16063 8.04835 7.16244 8.18944 7.19948 8.32323C7.23651 8.45701 7.30751 8.57895 7.40558 8.6772L10.3232 11.5948C10.4215 11.6931 10.5437 11.7642 10.6777 11.8012C10.8117 11.8383 10.953 11.84 11.0879 11.8062L13.6873 11.1566C13.992 11.0805 14.31 11.0745 14.6174 11.1393C14.9247 11.2041 15.2133 11.338 15.4613 11.5307L18.1996 13.661C19.184 14.4269 19.2743 15.8816 18.3932 16.7615L17.1653 17.9893C16.2866 18.8681 14.9733 19.254 13.749 18.823C10.6155 17.7204 7.77045 15.9265 5.42489 13.5743C3.07287 11.2291 1.27899 8.38444 0.176304 5.25135C-0.253558 4.02825 0.132368 2.71372 1.01109 1.83499L2.23893 0.607148H2.23774Z" fill="#F1F1F1"/>
</g>
</svg>
