<svg width="50" height="50" viewBox="0 0 50 50" fill="none" xmlns="http://www.w3.org/2000/svg">
<path d="M16.5409 44.8873C15.9551 44.3013 15.6259 43.5066 15.6259 42.6779C15.6259 41.8493 15.9551 41.0546 16.5409 40.4685L32.0097 24.9998L16.5409 9.53104C15.9717 8.94166 15.6567 8.15228 15.6638 7.33291C15.6709 6.51355 15.9996 5.72976 16.579 5.15036C17.1584 4.57096 17.9422 4.24231 18.7615 4.23519C19.5809 4.22807 20.3703 4.54305 20.9597 5.1123L38.6378 22.7904C39.2236 23.3764 39.5527 24.1712 39.5527 24.9998C39.5527 25.8284 39.2236 26.6231 38.6378 27.2092L20.9597 44.8873C20.3736 45.4731 19.5789 45.8022 18.7503 45.8022C17.9216 45.8022 17.1269 45.4731 16.5409 44.8873Z" fill="#F1F1F1"/>
</svg>
